<?xml version="1.0" encoding="UTF-8" ?>
<!DOCTYPE svg PUBLIC "-//W3C//DTD SVG 1.1//EN" "http://www.w3.org/Graphics/SVG/1.1/DTD/svg11.dtd">
<svg width="416pt" height="287pt" viewBox="0 0 416 287" version="1.1" xmlns="http://www.w3.org/2000/svg">
<path fill="#ffffff" d=" M 0.00 0.00 L 416.00 0.00 L 416.00 287.00 L 0.00 287.00 L 0.00 0.00 Z" />
<path fill="#4cae4c" d=" M 153.20 13.36 C 188.22 23.15 223.18 33.19 258.28 42.69 C 273.20 57.58 286.96 73.74 302.00 88.56 C 297.02 89.77 291.69 88.25 286.56 88.76 C 286.43 88.67 286.17 88.49 286.03 88.41 C 274.90 75.10 263.46 62.03 251.64 49.34 C 221.51 41.59 191.17 34.62 160.80 27.89 C 160.73 27.82 160.60 27.69 160.53 27.62 C 158.30 22.76 155.25 18.29 153.20 13.36 Z" />
<path fill="#29b6f6" d=" M 105.03 16.17 C 123.58 19.74 142.02 23.92 160.53 27.62 C 160.60 27.69 160.73 27.82 160.80 27.89 C 171.00 47.11 179.48 67.17 187.84 87.24 L 188.31 87.79 C 217.21 87.90 246.13 87.29 275.00 88.25 C 278.68 88.20 282.35 88.79 286.03 88.41 C 286.17 88.49 286.43 88.67 286.56 88.76 C 291.86 95.48 297.45 102.01 302.88 108.66 C 247.89 117.89 192.85 126.80 137.92 136.33 C 131.53 137.44 125.03 139.18 118.63 139.43 C 114.89 104.56 110.74 69.73 106.86 34.88 C 106.27 28.65 105.14 22.40 105.03 16.17 Z" />
<path fill="#ffffff" d=" M 160.80 27.89 C 191.17 34.62 221.51 41.59 251.64 49.34 C 263.46 62.03 274.90 75.10 286.03 88.41 C 282.35 88.79 278.68 88.20 275.00 88.25 C 246.13 87.29 217.21 87.90 188.31 87.79 L 187.84 87.24 C 179.48 67.17 171.00 47.11 160.80 27.89 Z" />
<path fill="#29b6f6" d=" M 191.72 42.03 C 204.84 44.45 217.90 47.28 230.97 49.99 C 235.78 51.44 240.99 51.61 245.64 53.52 C 252.20 61.78 259.28 69.69 265.71 78.02 C 247.29 76.32 228.73 75.18 210.34 73.69 C 204.55 62.90 198.16 52.43 191.72 42.03 Z" />
<path fill="#4cae4c" d=" M 23.71 161.86 C 28.98 160.23 34.38 158.16 39.99 158.53 C 43.52 159.47 44.32 163.79 44.50 166.94 C 44.45 186.86 44.63 206.78 44.44 226.70 C 50.53 224.37 55.63 219.79 60.56 215.54 C 62.74 213.36 65.32 211.14 66.07 208.04 C 65.99 204.87 61.24 205.15 61.00 201.98 C 60.45 199.21 63.49 197.07 66.00 197.51 C 72.64 197.71 79.27 197.06 85.87 197.60 C 87.92 197.94 91.37 199.35 90.21 201.98 C 89.19 206.21 84.11 206.72 81.51 209.63 C 76.95 214.18 71.88 218.27 67.32 222.78 C 77.22 231.40 84.42 242.66 90.80 254.01 C 91.84 255.78 93.77 256.62 95.50 257.54 C 97.58 260.10 96.42 264.52 93.02 265.17 C 83.38 265.40 73.72 265.36 64.08 265.17 C 61.01 265.19 58.81 262.02 60.16 259.21 C 61.41 258.05 62.78 257.06 64.00 255.88 C 64.36 252.90 62.36 250.45 60.93 248.05 C 57.98 242.80 54.31 237.95 49.86 233.88 C 48.02 233.88 46.67 235.71 44.91 236.25 C 44.07 241.61 44.55 247.41 44.68 252.93 C 44.18 257.09 50.18 257.19 50.35 260.97 C 50.34 263.32 48.46 265.46 46.01 265.26 C 37.02 265.18 28.02 265.38 19.04 265.16 C 15.63 265.15 14.03 259.82 16.99 258.04 C 18.47 257.15 19.75 256.00 20.95 254.76 C 21.33 251.19 21.22 247.60 21.25 244.02 C 21.24 222.71 21.27 201.39 21.24 180.08 C 21.11 177.42 21.05 174.09 18.28 172.74 C 16.05 171.17 11.87 170.00 13.45 166.39 C 15.77 163.00 20.38 163.57 23.71 161.86 Z" />
<path fill="#4cae4c" d=" M 196.43 159.57 C 199.24 158.75 202.15 158.26 205.08 158.51 C 208.42 159.81 209.09 163.86 209.24 167.02 C 209.26 194.38 209.28 221.73 209.26 249.08 C 209.48 251.57 209.29 254.78 211.96 256.03 C 214.20 257.24 217.42 258.77 216.48 261.94 C 216.33 264.87 213.19 265.09 210.97 265.25 C 202.35 265.24 193.73 265.26 185.11 265.25 C 182.75 265.09 179.32 265.11 179.03 262.01 C 178.08 258.74 181.42 257.04 183.84 255.91 C 186.35 254.55 186.01 251.38 186.24 248.97 C 186.25 226.66 186.26 204.35 186.24 182.04 C 185.68 178.83 186.69 174.46 183.11 172.71 C 181.48 171.12 178.12 170.78 178.18 167.99 C 178.12 165.09 181.28 164.05 183.54 163.33 C 187.91 162.34 192.03 160.50 196.43 159.57 Z" />
<path fill="#4cae4c" d=" M 240.18 159.27 C 243.41 158.68 248.33 156.97 250.18 160.78 C 251.57 162.88 251.72 165.53 251.76 167.98 C 251.75 191.99 251.75 216.01 251.75 240.03 C 251.82 244.37 251.50 248.74 252.12 253.06 C 252.87 256.47 257.12 256.52 258.81 259.22 C 259.52 261.39 258.77 264.84 256.00 264.93 C 249.37 265.65 242.64 265.06 235.97 265.25 C 231.57 265.07 226.97 265.95 222.74 264.36 C 221.53 263.26 221.38 261.47 221.48 259.94 C 222.38 256.97 226.07 256.88 227.80 254.64 C 228.58 252.90 228.56 250.96 228.74 249.10 C 228.78 226.74 228.70 204.38 228.74 182.02 C 228.04 179.00 229.25 174.89 226.05 173.05 C 224.33 171.26 220.76 170.85 220.65 167.96 C 221.07 163.91 225.85 163.63 228.90 162.63 C 232.54 161.15 236.37 160.24 240.18 159.27 Z" />
<path fill="#4cae4c" d=" M 369.71 174.45 C 373.31 173.68 377.12 173.89 380.77 174.26 C 381.65 175.68 382.04 177.30 382.00 178.97 C 382.01 185.06 381.98 191.14 382.01 197.23 C 386.49 197.21 391.00 197.24 395.44 197.71 C 400.15 198.64 400.28 206.33 395.90 207.86 C 391.61 209.25 386.95 208.13 382.51 208.52 C 382.53 221.34 382.43 234.16 382.56 246.98 C 382.41 250.35 384.23 254.59 388.17 254.47 C 391.96 255.30 397.39 253.18 399.59 257.42 C 401.33 260.86 398.65 264.82 394.97 265.12 C 386.32 265.43 377.64 265.15 368.98 265.26 C 366.28 265.11 362.89 265.17 361.22 262.63 C 359.88 261.01 359.82 258.83 359.51 256.85 C 359.47 240.74 359.49 224.63 359.49 208.52 C 356.02 208.35 352.00 209.14 349.04 206.92 C 347.51 204.71 347.19 200.47 350.09 199.21 C 354.19 197.14 360.16 198.34 362.94 193.98 C 367.27 188.29 365.85 180.33 369.71 174.45 Z" />
<path fill="#4cae4c" d=" M 119.19 202.21 C 127.08 197.11 136.80 196.16 145.99 196.48 C 154.24 197.08 163.09 199.84 168.37 206.62 C 171.72 210.58 172.57 216.34 171.12 221.26 C 169.73 227.13 164.18 230.51 159.24 233.20 C 148.94 238.54 137.12 239.14 125.89 241.08 C 127.42 248.12 132.82 254.09 139.88 255.83 C 145.60 256.49 151.80 255.95 156.68 252.62 C 160.35 250.39 163.63 247.58 166.76 244.65 C 168.50 244.86 170.71 244.36 171.99 245.92 C 174.50 248.77 171.89 252.61 169.91 254.95 C 157.33 268.31 135.99 270.61 119.67 263.31 C 110.16 258.59 101.75 249.86 100.59 238.90 C 98.18 224.29 106.26 209.11 119.19 202.21 Z" />
<path fill="#4cae4c" d=" M 293.54 197.65 C 301.54 196.04 310.09 195.75 317.99 198.00 C 327.89 201.08 337.21 207.79 341.55 217.45 C 347.12 228.59 345.35 242.89 337.45 252.49 C 327.73 265.09 310.35 269.23 295.21 266.68 C 285.92 265.03 276.93 260.31 271.29 252.61 C 262.29 241.16 262.16 223.68 271.21 212.23 C 276.57 204.82 284.66 199.74 293.54 197.65 Z" />
<path fill="#ffffff" d=" M 130.11 211.95 C 133.35 206.70 140.34 204.86 145.91 207.09 C 152.24 211.70 150.34 222.29 143.89 225.94 C 138.03 229.07 131.46 231.45 124.76 231.43 C 124.64 224.63 126.59 217.72 130.11 211.95 Z" />
<path fill="#ffffff" d=" M 299.34 207.45 C 305.08 205.68 312.48 206.58 316.12 211.93 C 319.94 218.89 320.96 227.08 320.41 234.92 C 319.92 241.89 318.89 249.65 313.62 254.77 C 310.07 258.12 304.88 258.21 300.37 257.48 C 295.38 256.29 292.25 251.61 290.91 246.95 C 287.91 236.28 287.54 224.31 292.41 214.12 C 293.59 211.03 296.27 208.62 299.34 207.45 Z" />
</svg>
